dummy_motion.mot
nRows=30
nColumns=17

name dummy_motion.mot
datacolumns 17
datarows 30
range 12.5100000000 12.8000000000
endheader
time	first_body_list	first_body_rotation	first_body_tilt	first_body_tx	first_body_ty	first_body_tz	subtalar_angle_l	ankle_angle_l	knee_angle_l	hip_flexion_l	hip_adduction_l	hip_rotation_l	lumbar_extension	lumbar_bending	lumbar_rotation	mtp_angle_l
       12.5100000000	        0.0000000000	        0.0000000000	        0.0000000000	        0.0000000000	        0.0000000000	        0.0000000000	        0.0000000000	      -40.1958473766	      -48.7631032728	       29.3158613368	       -1.2495683325	      -33.0286356892	       41.3470126137	      -22.8221131150	      -33.9309867637	        0.0000000000	
       12.5200000000	        0.0000000000	        0.0000000000	        0.0000000000	        0.0000000000	        0.0000000000	        0.0000000000	        0.0000000000	      -58.7628954642	        6.1454518710	       73.9749411807	       39.5659246887	       37.4635734179	      -58.6697661951	       34.7864632179	      -19.9181044266	        0.0000000000	
       12.5300000000	        0.0000000000	        0.0000000000	        0.0000000000	        0.0000000000	        0.0000000000	        0.0000000000	        0.0000000000	       11.7545400766	        7.3802470345	      -23.9460500264	       38.0674624262	       20.3372341373	       15.6579736997	       18.0264039601	      -32.3696283425	        0.0000000000	
       12.5400000000	        0.0000000000	        0.0000000000	        0.0000000000	        0.0000000000	        0.0000000000	        0.0000000000	        0.0000000000	       -8.7189767994	      -21.4303455403	      -19.0037162338	      -12.3413027069	      -18.1549354084	       15.3364585807	       38.1362150487	      -34.0194886978	        0.0000000000	
       12.5500000000	        0.0000000000	        0.0000000000	        0.0000000000	        0.0000000000	        0.0000000000	        0.0000000000	        0.0000000000	       22.1079290204	      -72.4293018132	      107.4071075003	       27.5662857185	       23.0238704139	       88.5543993844	       26.6934325260	       -5.6603189218	        0.0000000000	
       12.5600000000	        0.0000000000	        0.0000000000	        0.0000000000	        0.0000000000	        0.0000000000	        0.0000000000	        0.0000000000	      -14.5980587701	      -55.9722041981	       91.6378215547	       36.4950207036	      -18.3405608100	      114.9558329105	        7.6896695061	      -10.5356103737	        0.0000000000	
       12.5700000000	        0.0000000000	        0.0000000000	        0.0000000000	        0.0000000000	        0.0000000000	        0.0000000000	        0.0000000000	       50.1161865377	     -114.8348158000	      -57.5687439702	       33.0057734578	      -35.7579628457	       69.2997298832	      -36.9518145891	       -0.3067008015	        0.0000000000	
       12.5800000000	        0.0000000000	        0.0000000000	        0.0000000000	        0.0000000000	        0.0000000000	        0.0000000000	        0.0000000000	       13.8183403766	      -55.7954108046	      -62.2308902671	      -13.4634620665	       -3.4723505335	       16.6160506156	       36.5146197354	      -11.1189767841	        0.0000000000	
       12.5900000000	        0.0000000000	        0.0000000000	        0.0000000000	        0.0000000000	        0.0000000000	        0.0000000000	        0.0000000000	       -2.3296357926	      -96.8808770471	       60.2928523061	       -9.3421279663	       23.6965944320	       96.5669249519	        6.9607785187	      -18.2774522249	        0.0000000000	
       12.6000000000	        0.0000000000	        0.0000000000	        0.0000000000	        0.0000000000	        0.0000000000	        0.0000000000	        0.0000000000	      -46.9890629124	     -102.6075509866	       32.3958895901	       25.5814319994	      -31.9898674371	       75.1546467767	      -39.3618313902	      -36.2978812294	        0.0000000000	
       12.6100000000	        0.0000000000	        0.0000000000	        0.0000000000	        0.0000000000	        0.0000000000	        0.0000000000	        0.0000000000	       17.4003848660	      -57.7509409548	      -35.4930507970	      -12.4195421750	       33.2441726185	       97.7912121415	       -6.0798674442	       22.9637097594	        0.0000000000	
       12.6200000000	        0.0000000000	        0.0000000000	        0.0000000000	        0.0000000000	        0.0000000000	        0.0000000000	        0.0000000000	      -16.2455926821	      -93.6311751402	      -66.3763266295	       -9.0064362287	       39.0417044563	       93.7739139008	       24.5369430053	       32.9655179336	        0.0000000000	
       12.6300000000	        0.0000000000	        0.0000000000	        0.0000000000	        0.0000000000	        0.0000000000	        0.0000000000	        0.0000000000	       26.0010844185	      -36.3314983631	        7.4705930575	      -20.3771752815	       -6.4043332291	      -64.7398331530	       17.0285280308	       11.4431017382	        0.0000000000	
       12.6400000000	        0.0000000000	        0.0000000000	        0.0000000000	        0.0000000000	        0.0000000000	        0.0000000000	        0.0000000000	      -50.1347887325	      -75.9026666796	       -3.0617614250	       -7.5373193843	       34.0925711453	      -48.4550049793	       -7.4388350597	       28.8346397980	        0.0000000000	
       12.6500000000	        0.0000000000	        0.0000000000	        0.0000000000	        0.0000000000	        0.0000000000	        0.0000000000	        0.0000000000	       30.0602548077	     -113.8279511659	       96.4993045011	       24.5386914360	       39.8712861628	      105.6177954506	       23.2056554993	       28.5910677545	        0.0000000000	
       12.6600000000	        0.0000000000	        0.0000000000	        0.0000000000	        0.0000000000	        0.0000000000	        0.0000000000	        0.0000000000	      -26.7359003454	     -119.0261101411	       24.7779471445	       -1.9973474831	       28.8287202894	       51.7499776787	        0.7263401376	       15.6213716667	        0.0000000000	
       12.6700000000	        0.0000000000	        0.0000000000	        0.0000000000	        0.0000000000	        0.0000000000	        0.0000000000	        0.0000000000	       -1.7309761787	      -44.8455189745	      -28.6967016763	       14.6651691978	       10.0662414774	       85.8932303811	      -23.4249055151	       31.6618455488	        0.0000000000	
       12.6800000000	        0.0000000000	        0.0000000000	        0.0000000000	        0.0000000000	        0.0000000000	        0.0000000000	        0.0000000000	       22.7414649943	      -38.6617759191	       77.9500974627	       -8.6598492753	       27.4704799095	       12.2693379042	       -6.0809986561	       24.6802389179	        0.0000000000	
       12.6900000000	        0.0000000000	        0.0000000000	        0.0000000000	        0.0000000000	        0.0000000000	        0.0000000000	        0.0000000000	      -15.8665007632	      -15.9706144176	       21.5098314792	        1.6124677818	       -4.2331168247	       56.3507122788	        9.6548008188	        0.2347563566	        0.0000000000	
       12.7000000000	        0.0000000000	        0.0000000000	        0.0000000000	        0.0000000000	        0.0000000000	        0.0000000000	        0.0000000000	        3.9618910391	      -25.6996399837	       11.3603429286	       11.3197952469	        1.5603770064	        4.5048830039	       -7.3255806597	      -31.2562429478	        0.0000000000	
       12.7100000000	        0.0000000000	        0.0000000000	        0.0000000000	        0.0000000000	        0.0000000000	        0.0000000000	        0.0000000000	        0.9665706372	      -59.3409849135	       57.5832301500	       -2.4089296436	       22.1136361035	       83.2387311061	       27.8604525599	        8.3761636399	        0.0000000000	
       12.7200000000	        0.0000000000	        0.0000000000	        0.0000000000	        0.0000000000	        0.0000000000	        0.0000000000	        0.0000000000	      -51.6924393575	     -116.2003627168	       42.0236727047	       23.2020588142	       -3.5590122850	      -58.0200202001	       36.7596164786	      -19.8097358532	        0.0000000000	
       12.7300000000	        0.0000000000	        0.0000000000	        0.0000000000	        0.0000000000	        0.0000000000	        0.0000000000	        0.0000000000	       52.1212362618	      -11.0852416353	       16.9286077868	       13.4983926818	       -2.0052939981	      -29.5041970836	       -4.2500693393	      -15.3847422143	        0.0000000000	
       12.7400000000	        0.0000000000	        0.0000000000	        0.0000000000	        0.0000000000	        0.0000000000	        0.0000000000	        0.0000000000	        9.5659307885	      -29.4049283527	        6.2710200785	        6.0395915580	        2.7033693683	      -40.7346139727	       23.1414858196	      -17.1115009895	        0.0000000000	
       12.7500000000	        0.0000000000	        0.0000000000	        0.0000000000	        0.0000000000	        0.0000000000	        0.0000000000	        0.0000000000	       20.9997166069	        8.5371901571	       47.7115384308	       -7.2548670031	      -18.3160028327	      -12.7451565267	        9.5311072540	        3.9768948493	        0.0000000000	
       12.7600000000	        0.0000000000	        0.0000000000	        0.0000000000	        0.0000000000	        0.0000000000	        0.0000000000	        0.0000000000	      -19.5810275606	      -34.3523874835	      103.8795684319	        7.3830108234	        3.0173295335	      107.9653361690	      -14.1182212927	      -39.7736260428	        0.0000000000	
       12.7700000000	        0.0000000000	        0.0000000000	        0.0000000000	        0.0000000000	        0.0000000000	        0.0000000000	        0.0000000000	       51.1391775079	      -51.3001514613	       66.2330928142	        2.3581625284	      -22.7800972820	      -23.9748498952	      -12.2479288453	       -5.5282192725	        0.0000000000	
       12.7800000000	        0.0000000000	        0.0000000000	        0.0000000000	        0.0000000000	        0.0000000000	        0.0000000000	        0.0000000000	       -9.8744256725	     -109.9476632136	      107.8783384622	       32.8686011608	      -19.1847763290	       33.7152562364	       22.7421032257	       28.6928711309	        0.0000000000	
       12.7900000000	        0.0000000000	        0.0000000000	        0.0000000000	        0.0000000000	        0.0000000000	        0.0000000000	        0.0000000000	      -53.5151372424	     -105.1444830142	       19.6006061945	      -27.3818091892	      -26.2339525334	      -64.5206676749	      -17.1165862419	       17.8066255927	        0.0000000000	
       12.8000000000	        0.0000000000	        0.0000000000	        0.0000000000	        0.0000000000	        0.0000000000	        0.0000000000	        0.0000000000	       30.5292607294	      -16.1525519490	      -43.9978537337	      -20.7016869985	       -8.8940062990	      -52.3167459607	        3.6599424561	      -35.9888681558	        0.0000000000	
